# xmcd CD database file
#
# Track frame offsets:
#	150
#	23809
#	34469
#	52114
#	63310
#	80980
#	91607
#	103192
#	115382
#	126602
#	139142
#	152850
#	164915
#	178285
#	189941
#	206092
#	219611
#	234004
#	252370
#	264015
#	283169
#	297202
#	313035
#	322845
#	336915
#
# Disc length: 4670 seconds
#
# Revision: 6
# Processed by: cddbd v1.5.2PL0 Copyright (c) Steve Scherf et al.
# Submitted via: jetAudio 5
#
DISCID=85123c19
DTITLE=John Fogerty - The Long Road Home
DYEAR=1900
DGENRE=
TTITLE0=Born On The Bayou
TTITLE1=Bad Moon Rising
TTITLE2=Centerfield
TTITLE3=Who'll Stop The Rain
TTITLE4=Rambunctious Boy
TTITLE5=Fortunate Son
TTITLE6=Lookin' Out My Back Door
TTITLE7=Up Around The Bend
TTITLE8=Almost Saturday Night (Live)
TTITLE9=Down On The Corner
TTITLE10=Bootleg (Live)
TTITLE11=Have You Ever Seen The Rain
TTITLE12=Sweet Hitch Hiker
TTITLE13=Hey Tonight (Live)
TTITLE14=The Old Man Down The Road
TTITLE15=Rockin' All Over The World (Live)
TTITLE16=Lodi
TTITLE17=Keep On Chooglin' (Live)
TTITLE18=Green River
TTITLE19=Deja Vu (All Over Again)
TTITLE20=Run Through The Jungle
TTITLE21=Hot Rod Heart
TTITLE22=Travelin' Band
TTITLE23=Proud Mary
TTITLE24=Fortunate Son (Live)
EXTD=2005The Ultimate John Fogerty - Creedence Collection
EXTT0=CCR
EXTT1=CCR
EXTT2=John Fogerty
EXTT3=CCR
EXTT4=John Fogerty
EXTT5=CCR
EXTT6=CCR
EXTT7=CCR
EXTT8=John Fogerty
EXTT9=CCR
EXTT10=John Fogerty
EXTT11=CCR
EXTT12=CCR
EXTT13=John Fogerty
EXTT14=John Fogerty
EXTT15=John Fogerty
EXTT16=CCR
EXTT17=John Fogerty
EXTT18=CCR
EXTT19=John Fogerty
EXTT20=CCR
EXTT21=John Fogerty
EXTT22=CCR
EXTT23=CCR
EXTT24=John Fogerty
PLAYORDER=
